<?xml version="1.0" encoding="utf-8"?>
<!-- Generator: Adobe Illustrator 16.0.0, SVG Export Plug-In . SVG Version: 6.00 Build 0)  -->
<!DOCTYPE svg PUBLIC "-//W3C//DTD SVG 1.1//EN" "http://www.w3.org/Graphics/SVG/1.1/DTD/svg11.dtd">
<svg version="1.1" id="Layer_1" xmlns="http://www.w3.org/2000/svg" xmlns:xlink="http://www.w3.org/1999/xlink" x="0px" y="0px"
	 width="276.8px" height="59.427px" viewBox="0 0 276.8 59.427" enable-background="new 0 0 276.8 59.427" xml:space="preserve">
<g>
	<path fill="#183E80" d="M18.289,58.693c-5.551,0-9.986-1.799-13.307-5.399C1.66,49.693,0,45.123,0,39.579v-1.44
		c0-5.781,1.571-10.547,4.715-14.291c3.143-3.744,7.359-5.602,12.649-5.579c5.195,0,9.227,1.583,12.098,4.751
		c2.869,3.168,4.305,7.452,4.305,12.851v5.724H10.781L10.71,41.81c0.19,2.569,1.038,4.68,2.544,6.336
		c1.507,1.655,3.553,2.483,6.138,2.483c2.301,0,4.211-0.233,5.729-0.702c1.517-0.468,3.178-1.206,4.981-2.213l2.811,6.479
		c-1.589,1.273-3.647,2.34-6.173,3.205C24.213,58.261,21.397,58.693,18.289,58.693 M17.364,26.367c-1.921,0-3.44,0.744-4.554,2.232
		c-1.116,1.489-1.803,3.444-2.064,5.867l0.107,0.18h12.738v-0.935c0-2.231-0.516-4.014-1.548-5.346
		C21.011,27.033,19.451,26.367,17.364,26.367"/>
	<polygon fill="#183E80" points="36.562,8.117 36.562,1.78 52.502,1.78 52.502,50.558 57.519,51.638 57.519,57.937 37.096,57.937 
		37.096,51.638 42.113,50.558 42.113,9.196 	"/>
	<path fill="#183E80" d="M83.924,53.185c-1.21,1.801-2.639,3.168-4.287,4.104c-1.649,0.937-3.529,1.403-5.64,1.403
		c-4.745,0-8.427-1.75-11.048-5.256c-2.621-3.504-3.932-8.135-3.932-13.895v-0.756c0-6.143,1.317-11.099,3.95-14.867
		c2.633-3.767,6.333-5.652,11.101-5.652c1.922,0,3.653,0.427,5.195,1.278c1.542,0.852,2.894,2.058,4.056,3.618V9.196l-5.55-1.08
		V1.781h5.55h10.39v48.777l4.981,1.08v6.299H84.708L83.924,53.185z M69.408,39.542c0,3.408,0.562,6.09,1.69,8.045
		c1.126,1.957,2.971,2.934,5.533,2.934c1.518,0,2.834-0.311,3.95-0.936c1.114-0.624,2.028-1.523,2.739-2.699V30.363
		c-0.711-1.247-1.619-2.213-2.722-2.897s-2.401-1.026-3.896-1.026c-2.538,0-4.389,1.14-5.551,3.42
		c-1.162,2.281-1.743,5.255-1.743,8.927V39.542z"/>
	<path fill="#183E80" d="M151.011,57.937c-0.285-0.647-0.534-1.312-0.747-1.997c-0.214-0.685-0.38-1.373-0.498-2.07
		c-1.233,1.44-2.735,2.604-4.501,3.492c-1.768,0.888-3.79,1.332-6.067,1.332c-3.772,0-6.766-1.038-8.984-3.114
		c-2.219-2.074-3.327-4.9-3.327-8.479c0-3.647,1.446-6.465,4.341-8.459c2.894-1.991,7.139-2.987,12.738-2.987h5.302v-3.815
		c0-1.873-0.534-3.324-1.603-4.355c-1.066-1.031-2.645-1.548-4.731-1.548c-1.187,0-2.241,0.139-3.167,0.414
		c-0.925,0.276-1.672,0.607-2.241,0.99l-0.676,4.175h-7.828l0.035-8.639c1.898-1.296,4.074-2.388,6.53-3.276
		c2.455-0.887,5.129-1.332,8.023-1.332c4.769,0,8.64,1.183,11.617,3.546c2.978,2.364,4.466,5.73,4.466,10.097v16.091
		c0,0.6,0.006,1.166,0.018,1.692c0.013,0.528,0.054,1.032,0.125,1.512l3.166,0.433v6.299H151.011z M142.009,50.917
		c1.566,0,2.988-0.342,4.27-1.025s2.277-1.543,2.989-2.574v-5.939h-5.302c-2.206,0-3.879,0.522-5.017,1.566
		c-1.139,1.043-1.708,2.298-1.708,3.761c0,1.32,0.421,2.353,1.263,3.097C139.346,50.546,140.515,50.917,142.009,50.917"/>
	<path fill="#183E80" d="M167.307,51.638l4.981-1.08V26.404l-5.516-1.08v-6.336h15.193l0.463,5.688
		c0.901-2.016,2.064-3.587,3.487-4.716c1.423-1.128,3.071-1.692,4.946-1.692c0.545,0,1.121,0.042,1.726,0.126
		c0.604,0.085,1.108,0.186,1.513,0.306l-1.104,9.576l-4.27-0.108c-1.519,0-2.775,0.301-3.772,0.9
		c-0.996,0.599-1.757,1.451-2.277,2.555v18.936l4.981,1.08v6.3h-20.353V51.638z"/>
	<path fill="#183E80" d="M220.679,38.103c0-5.809,1.607-10.565,4.822-14.273c3.213-3.708,7.654-5.562,13.324-5.562
		c5.693,0,10.146,1.849,13.36,5.544c3.215,3.696,4.822,8.459,4.822,14.292v0.756c0,5.855-1.607,10.625-4.822,14.309
		c-3.214,3.686-7.644,5.525-13.289,5.525c-5.717,0-10.183-1.84-13.396-5.525c-3.215-3.684-4.822-8.453-4.822-14.309V38.103z
		 M231.069,38.859c0,3.552,0.617,6.402,1.851,8.549c1.232,2.148,3.226,3.222,5.978,3.222c2.68,0,4.644-1.079,5.889-3.239
		s1.868-5.004,1.868-8.531v-0.756c0-3.457-0.629-6.275-1.886-8.459c-1.258-2.183-3.238-3.276-5.942-3.276
		c-2.703,0-4.674,1.093-5.906,3.276c-1.233,2.184-1.851,5.002-1.851,8.459V38.859z"/>
	<path fill="#FCCC12" d="M276.8,52.089c0,4.053-3.247,7.338-7.252,7.338s-7.252-3.285-7.252-7.338c0-4.051,3.247-7.336,7.252-7.336
		S276.8,48.039,276.8,52.089"/>
	<polygon fill="#183E80" points="198.9,51.638 203.917,50.558 203.917,26.404 198.366,25.324 198.366,18.988 214.306,18.988 
		214.306,50.558 219.288,51.638 219.288,57.938 198.9,57.938 	"/>
	<path fill="#183E80" d="M214.799,5.805c0,3.206-2.569,5.805-5.737,5.805c-3.17,0-5.738-2.599-5.738-5.805S205.892,0,209.062,0
		C212.23,0,214.799,2.599,214.799,5.805"/>
	<polygon fill="#183E80" points="103.469,51.638 108.486,50.558 108.486,26.404 102.935,25.324 102.935,18.988 118.876,18.988 
		118.876,50.558 123.857,51.638 123.857,57.938 103.469,57.938 	"/>
	<path fill="#183E80" d="M119.369,5.805c0,3.206-2.569,5.805-5.738,5.805s-5.738-2.599-5.738-5.805S110.462,0,113.631,0
		S119.369,2.599,119.369,5.805"/>
	<polygon fill="#183E80" points="103.704,51.638 108.721,50.558 108.721,26.404 103.17,25.324 103.17,18.988 119.111,18.988 
		119.111,50.558 124.092,51.638 124.092,57.938 103.704,57.938 	"/>
</g>
</svg>
