<svg xmlns="http://www.w3.org/2000/svg" viewBox="0 0 1209 204"><path d="M69.9 149.182h6.22c10.17 0 10.77-2.43 10.77-11.23v-63.43c0-8.8-.61-11.08-10.77-11.08H69.9v-8h96.51v38.2h-7.89c0-24.28-6.53-30.2-29.29-30.2h-27.61v36.27h10.47c13.5 0 16.39-2.12 16.39-19.58h7.74v49.93h-7.74c-.3-17.75-2.43-22.31-16.54-22.31h-10.32v41.43h29.59c22 0 27-7.13 27.31-33.38h7.89v41.43H69.9v-8zM226.66 55.402v8h-7.59c-10.17 0-10.77 2.28-10.77 11.08v74.66h24.28c13.81 0 22-2.28 25.49-9 2.88-5.46 3.79-13.05 3.79-23.07v-2.28h7.89v42.34h-93.16v-8h6.22c10.17 0 10.77-2.43 10.77-11.23v-63.38c0-8.8-.61-11.08-10.77-11.08h-6.22v-8h50.08zM382.21 121.072c-3 24.81-21 40-47.06 40-32.94 0-53.48-21.61-53.48-54.33 0-32.3 21-54.33 53.48-54.33 30.8 0 47.7 19.47 47.7 56.47h-72.09c.86 23.12 10.06 35.12 25.88 35.12 16.47 0 24.17-6.42 27.59-22.89h18zm-47.28-54.33c-12.41 0-20.54 9-23.1 27h42.78c-1.28-18.44-7.27-27-19.68-27zM391.62 117.222h15.62c4.06 18.4 16.26 28.45 34 28.45 11.34 0 18-5.56 18-13.26 0-7.06-5.78-10.27-18-13.26l-15.83-3.85c-22-5.35-32.73-15.4-32.73-31.23 0-18.61 15.4-31.66 39.15-31.66 11.34 0 21.18 3.42 30.59 10.27l4.71-7.92h12.19v37.44h-14.54c-4.28-15.62-16-24.6-31.23-24.6-10.27 0-16.26 4.71-16.26 12 0 5.56 3.85 9 12 10.91l19.45 4.49c24.39 5.78 35.94 15.62 35.94 33.16 0 19.89-15 32.73-40.86 32.73-12.83 0-22.89-3.42-34.23-11.34l-3.85 9h-14.12zM502.64 71.002H486v-13.89c19.89-3.21 27.59-15.62 29.31-40.64H529v39.79h27.81v14.74h-28.28v57.54c0 9 1.28 12.62 7.7 12.62 8.34 0 9.63-7.91 9.63-26.1v-5.56h13.9c.21 3.21.21 6.42.21 9.2 0 29.09-8.77 42.14-30.8 42.14-18.82 0-26.53-11.34-26.53-35.3v-54.54zM565.32 142.892h7.92c10.91 0 12.19-3 12.19-12.83v-46.63c0-9.84-1.28-12.83-12.19-12.83h-7.92v-14.34h46.21v73.8c0 9.84 1.5 12.83 12.41 12.83h6.42v14.33h-65v-14.33zM603 10.052c6-6.41 10.67-10.05 16.23-10.05a11.32 11.32 0 0111.55 11.34c0 5.35-3.64 9-10.91 12.62l-34 16.9h-12zM782.66 53.052c9.41 0 17.54 3.21 22.25 8.13 6.85 7.27 7.06 16.47 7.06 29.09v39.79c0 9.84 1.28 12.83 12.19 12.83h6v14.33h-58.4v-14.33h2.35c10.91 0 12.41-3 12.41-12.83v-39.79c0-14.12-2.14-20.75-14.55-20.75s-23.74 11.34-23.74 28v32.51c0 9.84 1.28 12.83 12.19 12.83H763v14.33h-55v-14.3h2.35c10.91 0 12.41-3 12.41-12.83v-39.79c0-14.12-2.14-20.75-14.55-20.75s-23.74 11.34-23.74 28v32.51c0 9.84 1.28 12.83 12.19 12.83h2.57v14.33h-59.47v-14.3h7.06c10.91 0 12.19-3 12.19-12.83v-46.63c0-9.84-1.28-12.83-12.19-12.83h-7.06v-14.34h44.71v17.11c10.7-13.9 21.18-20.32 34.87-20.32 13.9 0 23.1 6.85 27.81 20.54 11.98-13.69 22.46-20.54 35.51-20.54zM838.71 83.432c0-9.84-1.5-12.83-12.41-12.83h-4.92v-14.34h43v67c0 13.9 3.85 20.75 15.83 20.75 15.19 0 26.31-11.77 26.31-34.44v-26.14c0-9.84-1.5-12.83-12.41-12.83h-9.84v-14.34h47.92v73.8c0 9.84 1.5 12.83 12.41 12.83h5.56v14.33h-43.64v-17.75c-11.12 13.9-23.1 21-35.3 21-24.17 0-32.51-11.55-32.51-37.22zM965.56 28.002h-6.42v-14.31h44.92v116.37c0 9.84 1.5 12.83 12.41 12.83h6.42v14.33h-63.75v-14.33h6.42c10.91 0 12.41-3 12.41-12.83v-89.2c.03-9.86-1.5-12.86-12.41-12.86zM1081.29 52.412c34.65 0 57.11 21.82 57.11 54.33s-22.46 54.12-57.11 54.12-56.9-21.61-56.9-54.12 22.24-54.33 56.9-54.33zm0 93.27c18.61 0 28-12.83 28-38.93s-9.41-39.15-28-39.15-27.81 13-27.81 39.15 9.2 38.92 27.81 38.92z"/><path d="M0 108.752h62.12v12.05H0zM1154.25 188.562c20.91-5.4 31.71-18.55 32-38.45-5.06 3.37-9.79 5.4-14.85 5.4-11.8 0-19.9-8.77-19.9-21.25 0-14.17 9.78-23.61 25.3-23.61 18.21 0 31.7 13.83 31.7 35.42 0 29.68-20.23 51.94-54.3 57.34v-14.85z" fill="#ff6200"/></svg>