<svg width="798" height="167" viewBox="0 0 798 167" fill="none" xmlns="http://www.w3.org/2000/svg">
<path d="M70.7 4.69922H0.199951V162.399H21.4V95.7992H70.7C86.5 95.7992 98.2 91.1992 105.7 81.9992C113.4 72.9992 117.2 62.0992 117.2 49.8992C117.2 35.5992 112.9 24.5992 104.4 16.5992C95.9 8.59922 84.6 4.69922 70.7 4.69922ZM86.8 71.5992C80.9 75.6992 73.1999 77.5992 63.5999 77.5992H21.4V22.9992H63.5999C71.7999 22.9992 78.1 24.1992 82.9 26.3992C91.4 30.5992 95.7 38.3992 95.7 49.9992C95.9 60.2992 92.9 67.4992 86.8 71.5992Z" fill="black"/>
<path d="M226 4.69922L180.8 80.4992L135.5 4.69922H110.5L170.2 98.7992V162.299H191.4V98.7992L251.2 4.69922H226Z" fill="black"/>
<path d="M495.9 132.099L417.2 4.69922H412.5H392.1H382.1L337 137.999L291.7 4.69922H261V162.399H281.3V69.3992C281.3 65.6992 281.2 59.9992 280.9 52.0992C280.6 44.1992 280.6 38.2992 280.6 34.3992V29.3992L326.2 162.399H347.3L392 30.7992V162.299H392.1H412.4H412.5V35.1992L492.2 162.199H516.2V4.69922H496L495.9 132.099Z" fill="black"/>
<path d="M527.5 4.69922V23.4992H580.4V162.299H602V23.4992H655.1V4.69922H527.5Z" fill="black"/>
<path d="M761.9 86.1C756.3 81.9 748.3 78.5 738 76.1L716.6 71.1C702.2 67.7 693 64.8 688.8 62.5C682.6 59 679.5 53.3 679.5 45.6C679.5 38.7 682 32.5 687.5 27.1C692.9 21.7 701.4 19.1 713.6 19.1C728.5 19.1 739 23.2 745.3 31.5C748.7 35.9 750.8 42.4 751.9 50.9H772C772 33.3 766.4 20.6 755.2 12.5C744.1 4.5 730.3 0.5 714.2 0.5C696.9 0.5 683.3 5.1 673.7 14.1C664.3 23.1 659.4 34.7 659.4 48.9C659.4 61.9 664.2 71.8 673.9 78.4C679.5 82.2 689 85.7 702.6 88.8L723.2 93.6C734.3 96.2 742.6 99.4 747.8 102.9C752.9 106.6 755.7 112.6 755.7 121.2C755.7 132.7 749.5 140.6 737.2 145.1C730.9 147.3 724 148.5 716.2 148.5C699 148.5 687 143.1 680.2 132.8C676.7 127.3 674.6 120 674.2 110.9H654C653.7 127.8 659.1 141.4 670 151.4C680.7 161.4 695.8 166.3 714.9 166.3C731.4 166.3 745.7 162.5 758 154.9C770.4 147.3 776.6 134.9 776.6 117.6C776.5 104.2 771.6 93.4 761.9 86.1Z" fill="black"/>
<path d="M785.2 11.0992H787.8C789.3 11.0992 790.1 11.7992 790.1 13.1992C790.1 14.5992 789.3 15.2992 787.8 15.2992H785.2V11.0992ZM792.2 13.1992C792.2 10.8992 790.4 9.49922 787.8 9.49922H783.1V20.9992H785.2V16.7992H787.3L790.1 20.9992H792.5L789.5 16.5992C791.1 16.1992 792.2 14.9992 792.2 13.1992ZM787.2 23.7992C782.1 23.7992 778.8 20.3992 778.8 15.1992C778.8 9.99922 782.1 6.59922 787.2 6.59922C792.3 6.59922 795.6 9.99922 795.6 15.1992C795.6 20.3992 792.3 23.7992 787.2 23.7992ZM787.2 4.69922C780.7 4.69922 776.6 8.89922 776.6 15.2992C776.6 21.6992 780.8 25.8992 787.2 25.8992C793.7 25.8992 797.8 21.6992 797.8 15.2992C797.8 8.79922 793.6 4.69922 787.2 4.69922Z" fill="black"/>
</svg>
